<?xml version="1.0" encoding="utf-8"?>
<!-- Generator: Adobe Illustrator 26.0.0, SVG Export Plug-In . SVG Version: 6.00 Build 0)  -->
<svg version="1.1" id="Layer_1" xmlns="http://www.w3.org/2000/svg" xmlns:xlink="http://www.w3.org/1999/xlink" x="0px" y="0px"
	 viewBox="0 0 84 97" style="enable-background:new 0 0 84 97;" xml:space="preserve">
<style type="text/css">
	.st0{fill:#FFFFFF;}
</style>
<circle cx="42" cy="50.7" r="28"/>
<path class="st0" d="M54.2,46.3v-4c0-7-5.3-12.6-11.9-12.6c-6.5,0-11.9,5.7-11.9,12.6v4c-1.5,0.1-2.6,1.4-2.6,3v17.5
	c0,1.7,1.3,3.1,2.9,3.1h23.3c1.6,0,2.9-1.4,2.9-3.1V49.3C56.8,47.7,55.6,46.4,54.2,46.3z M42.3,34.3c4.1,0,7.4,3.5,7.4,7.9v4H34.9
	v-4C34.9,37.9,38.2,34.3,42.3,34.3z"/>
</svg>
