<?xml version="1.0" encoding="utf-8"?>
<!-- Generator: Adobe Illustrator 26.0.0, SVG Export Plug-In . SVG Version: 6.00 Build 0)  -->
<svg version="1.1" id="Layer_1" xmlns="http://www.w3.org/2000/svg" xmlns:xlink="http://www.w3.org/1999/xlink" x="0px" y="0px"
	 viewBox="0 0 300 300" style="enable-background:new 0 0 300 300;" xml:space="preserve">
<style type="text/css">
	.st0{fill:#62737E;}
</style>
<path class="st0" d="M66.54,199.4c-0.23-0.3-0.46-0.61-0.69-0.91c0.26-0.08,0.14-0.25,0.04-0.35c-0.12-0.11-0.26-0.41-0.46-0.06
	c-0.31-0.26-0.62-0.52-0.92-0.77c-0.47-1.4-1.48-2.48-2.37-3.59c-0.47-0.58-0.56-1.63-1.62-1.66c-0.31-0.26-0.62-0.51-0.92-0.76
	c0.35-0.32-0.02-0.53-0.17-0.7c-1.62-1.82-2.9-3.91-4.46-5.8c-2.51-3.05-4.67-6.42-6.97-9.67c-0.75-1.06-1.61-2.08-2.26-3.24
	c-1.15-2.02-2.27-4.07-3.62-5.96c-2.22-3.08-3.78-6.51-5.75-9.72c-0.46-0.74-1.98-3.42-2.36-3.72c-0.19-0.36-0.38-0.71-0.57-1.06
	c-0.67-3.07-2.69-5.53-3.76-8.45c-1.03-2.81-2.78-5.37-3.72-8.19c-0.47-1.38-1.41-2.5-1.63-4c-0.38-2.65-1.42-5.21-2.39-7.62
	c-0.81-2.01-1.57-4.17-2.03-6.15c-0.91-3.95-2.48-7.81-2.36-12c0.03-1.05-0.28-2.21-0.89-3.18c-0.38-0.62-0.39-1.31-0.44-2.03
	c-0.21-2.92-0.47-5.83-0.77-8.74c-0.05-0.51,0.04-1.35-0.95-1.23c-0.01-3.83-0.38-7.69,0.1-11.45c0.31-2.54,1.22-5.14,1.16-7.65
	c-0.06-3.46,1.49-6.5,1.8-9.85c0.27-2.9,1.46-5.73,2.52-8.51c1.13-2.94,2.47-5.78,3.86-8.59c1.13-2.27,2.6-4.39,4.04-6.5
	c2.21-3.24,5.16-5.81,7.93-8.56c2.36-2.35,5.09-4.16,7.88-5.8c1.72-1.01,3.44-2.27,5.54-2.67c1.1-0.21,2.02-1.03,3.13-1.42
	c1.65-0.58,3.38-1.15,5.01-1.44c2.45-0.43,4.85-1.47,7.22-1.57c4.61-0.22,9.25-0.52,13.89-0.03c1.37,0.14,2.62,0.06,3.99,0.79
	c1.74,0.9,2.25,2.5,3.09,3.88c2.29,3.79,4.65,7.54,6.78,11.44c1.21,2.22,2.66,4.36,3.99,6.53c2.12,3.46,4.12,7.01,6.21,10.48
	c2.59,4.29,5.13,8.62,7.77,12.87c1.81,2.9,3.61,5.84,5.29,8.83c1.48,2.63,3.01,5.22,4.52,7.84c0.14,0.25,0.32,0.59,0.26,0.81
	c-0.49,1.75-0.07,3.52-0.05,5.27c0.03,2.8-1.37,5.03-2.43,7.42c-1.5,3.36-4.57,5.4-6.82,8.12c-2.07,2.51-5.36,3.35-7.17,6.05
	c-0.32,0.47-1.15,0.57-1.66,0.96c-3.7,2.9-7.85,5.26-10.96,8.91c-1.66,1.94-2.9,4.16-3.39,6.64c-0.38,1.94,0.97,3.58,1.8,5.19
	c1.78,3.47,3.69,6.9,5.85,10.14c1.94,2.91,3.72,5.92,5.78,8.76c1.32,1.82,2.68,3.64,3.94,5.54c2.07,3.11,4.19,6.18,6.83,8.87
	c0.84,0.86,1.27,2.14,2.12,3c6.14,6.2,11.3,13.39,18.55,18.48c1.32,0.92,1.8,2.64,3.2,3.48c3.47,2.07,6.29,5,9.63,7.28
	c3.14,2.14,6.08,4.64,9.3,6.71c2.45,1.57,5.09,2.94,7.47,4.58c3.09,2.12,6.73,3.17,9.65,5.53c2.33,1.87,5.19,2.23,7.93,1.6
	c1.6-0.37,3.14-1.59,4.38-2.77c2.06-1.97,3.87-4.19,5.66-6.44c1.99-2.5,3.57-5.31,5.9-7.54c0.81-0.77,1.55-1.64,2.13-2.58
	c2.12-3.44,5.31-5.7,8.39-8.18c1.93-1.56,4.2-2.25,6.23-3.47c0.32-0.2,0.79-0.24,1.18-0.21c2.67,0.18,5.37-0.03,8.02,0.16
	c1.66,0.12,3.28,1.31,4.87,2.13c2.91,1.5,5.57,3.45,8.48,4.9c3.04,1.52,5.69,3.67,8.7,5.14c4.11,2.02,8.08,4.28,11.97,6.64
	c3.41,2.08,7.06,3.72,10.37,6.01c2.02,1.4,4.45,2.36,6.58,3.66c4.07,2.48,7.97,5.19,9.73,9.97c0.57,1.53,0.93,3.28,1.71,4.55
	c2.06,3.37,0.89,6.88,1.15,10.31c0.08,0.99,0.21,2.1-0.99,2.72c-0.2,0.1-0.33,0.5-0.35,0.78c-0.3,4.27-2.25,8.05-3.65,11.99
	c-0.65,1.85-1.71,3.59-2.73,5.3c-2.4,4.02-5.03,7.93-8.59,10.99c-2.88,2.49-5.92,4.94-9.26,6.73c-4.37,2.33-8.76,4.67-13.66,5.99
	c-1.76,0.47-3.98,0.19-5.46,1.83c-0.26,0.29-1.03,0.04-1.54,0.17c-2.7,0.7-5.36,1.5-8.18,1.81c-1.32,0.13-2.49,0.87-4.01,0.41
	c-1.21-0.37-2.53,0.31-3.75,0.72c-2.17,0.73-4.32,0.93-6.59,0.54c-1.48-0.26-2.99,0.33-4.52,0.39c-3.28,0.13-6.52-0.68-9.81-0.21
	c-1.21,0.17-2.42-0.3-3.61-0.67c-1.72-0.52-3.65-0.42-5.25-0.8c-2.45-0.56-5.2-0.07-7.4-1.65c-0.39-0.28-0.81-0.57-1.29-0.48
	c-1.42,0.27-2.66,0.09-3.65-1.11c-0.3-0.37-0.86-0.45-1.32-0.29c-0.84,0.28-1.44,0.04-2.01-0.62c-0.93-1.06-2.4-0.42-3.59-1.1
	c-1.24-0.71-2.65-1.38-4.27-1.47c-1.32-0.07-2.3-1.33-3.63-1.85c-2.48-0.95-5.05-1.78-7.4-2.98c-1.98-1-3.92-2.09-5.88-3.13
	c-3.08-1.63-6-3.52-9.13-5.05c-1.86-0.92-3.31-2.41-5.17-3.28c-4-1.89-7.63-4.42-11.28-6.83c-2.98-1.96-5.96-4.03-8.96-5.9
	c-3.79-2.39-6.79-5.83-10.92-7.68c-1.14-0.5-1.52-1.88-2.6-2.57c-4.92-3.16-8.96-7.4-13.43-11.1c-4.07-3.37-7.57-7.51-11.32-11.3
	c-1.4-1.42-2.79-2.86-4.18-4.29c-2.04-2.37-4.08-4.74-6.12-7.11c-0.3-0.35-0.55-0.75-0.87-1.09c-0.26-0.28-0.38-0.87-0.98-0.56
	c-0.19-0.23-0.38-0.46-0.57-0.68C67.66,199.86,67.2,199.55,66.54,199.4"/>
</svg>
