<?xml version="1.0" encoding="utf-8"?>
<!-- Generator: Adobe Illustrator 26.0.0, SVG Export Plug-In . SVG Version: 6.00 Build 0)  -->
<svg version="1.1" id="Layer_1" xmlns="http://www.w3.org/2000/svg" xmlns:xlink="http://www.w3.org/1999/xlink" x="0px" y="0px"
	 viewBox="0 0 300 300" style="enable-background:new 0 0 300 300;" xml:space="preserve">
<style type="text/css">
	.st0{fill:#17283A;}
	.st1{fill:#FFD279;}
</style>
<path class="st0" d="M294.4,149.3c0,80.7-65.4,146.2-146.2,146.2S2,230,2,149.3S67.5,3.1,148.2,3.1S294.4,68.5,294.4,149.3"/>
<g>
	<path class="st1" d="M44.6,177.7H62c1.3,0,2.5,0.5,3.5,1.4c1,0.9,1.5,2.1,1.5,3.4c0,1.3-0.5,2.5-1.5,3.4c-1,0.9-2.1,1.4-3.5,1.4H44
		c-2.3,0-4.7-0.7-7.1-2.2c-2.4-1.5-4.1-3.1-5.1-4.9l-11.1-21.5c-1.5-3.1-2.2-6.3-2.2-9.5c0-3.6,0.7-6.7,2.1-9.3l11.2-21.3
		c1.1-2,2.7-3.7,5-5.2c2.3-1.5,4.4-2.3,6.5-2.3h19c1.3,0,2.5,0.5,3.4,1.4c0.9,1,1.4,2.1,1.4,3.4c0,1.3-0.5,2.5-1.4,3.5
		c-0.9,1-2.1,1.5-3.4,1.5H44c-1.5,0-2.8,0.9-3.7,2.7l-10.7,19.9c-0.8,1.6-1.3,3.4-1.3,5.6c0,2.3,0.5,4.2,1.4,6l10.2,19.6
		C40.9,176.6,42.4,177.7,44.6,177.7z"/>
	<path class="st1" d="M89,182.5v-66.6c0-1.3,0.5-2.4,1.4-3.3c0.9-0.9,2.1-1.4,3.4-1.4c1.3,0,2.5,0.5,3.4,1.4
		c0.9,0.9,1.4,2.1,1.4,3.4v24.3l7.7-5c3.5-2.2,6.7-3.3,9.4-3.3h6c3.9,0,7.3,1.4,10.2,4.2c2.8,2.8,4.3,6.2,4.4,10.2l1.2,36.1
		c0,1.3-0.4,2.5-1.4,3.4c-1,0.9-2.1,1.4-3.4,1.4c-1.3,0-2.5-0.5-3.4-1.5c-0.9-1-1.4-2.1-1.4-3.4l-1.2-36.2c0-1.3-0.5-2.4-1.5-3.4
		c-1-1-2.1-1.4-3.4-1.4h-5.4c-1.2,0-2.6,0.5-4,1.4l-13.7,8.9v30.6c0,1.3-0.5,2.5-1.4,3.4c-0.9,0.9-2.1,1.4-3.4,1.4
		c-1.3,0-2.5-0.5-3.4-1.4C89.5,184.9,89,183.8,89,182.5z"/>
	<path class="st1" d="M174.4,152.5h18.9c1,0,2.5,0.2,4.5,0.7l-0.1-6.8c0-1.3-0.5-2.5-1.4-3.4c-0.9-0.9-2.1-1.4-3.4-1.4h-18.3
		c-1.3,0-2.4-0.5-3.4-1.4c-1-1-1.4-2.1-1.4-3.4c0-1.3,0.5-2.5,1.4-3.4c0.9-0.9,2.1-1.4,3.4-1.4h18.3c4,0,7.4,1.4,10.2,4.2
		c2.8,2.8,4.3,6.2,4.4,10.3l1.2,36.1c0,1.3-0.5,2.5-1.4,3.4c-1,0.9-2.1,1.4-3.4,1.4c-1.4,0-2.5-0.5-3.5-1.4c-1-0.9-1.4-2.1-1.4-3.4
		l-8.2,4.8h-16.3c-4.1,0-7.5-1.4-10.3-4.2c-2.8-2.8-4.2-6.3-4.2-10.3v-5.6c0-4,1.4-7.4,4.3-10.3C167,154,170.4,152.5,174.4,152.5z
		 M198.5,171.3l-0.3-4.1c0-1.4-0.5-2.5-1.4-3.4c-0.9-0.9-2-1.4-3.4-1.4h-19c-1.3,0-2.5,0.5-3.4,1.4c-0.9,0.9-1.4,2.1-1.4,3.4v5.4
		c0,1.3,0.5,2.4,1.4,3.4c1,1,2.1,1.4,3.4,1.4H188L198.5,171.3z"/>
	<path class="st1" d="M264.9,187.3h-9.6c-4,0-7.4-1.4-10.3-4.2c-2.9-2.8-4.3-6.2-4.3-10.2v-31.3h-4.9c-1.3,0-2.5-0.5-3.4-1.4
		c-0.9-0.9-1.4-2.1-1.4-3.4c0-1.3,0.5-2.5,1.4-3.4c0.9-0.9,2.1-1.4,3.4-1.4h5v-11.8c0-1.3,0.5-2.5,1.4-3.4c0.9-0.9,2.1-1.4,3.4-1.4
		c1.3,0,2.4,0.5,3.4,1.4c1,1,1.5,2.1,1.5,3.4v11.8h19.4c1.3,0,2.4,0.5,3.4,1.4c1,1,1.4,2.1,1.4,3.4c0,1.3-0.5,2.5-1.4,3.4
		c-1,0.9-2.1,1.4-3.4,1.4h-19.5v31.3c0,1.3,0.5,2.4,1.5,3.4c1,1,2.1,1.4,3.5,1.4h9.4c2.6,0,4.3-1.4,5.1-4.2s2.5-4.2,4.9-4.2
		c1.4,0,2.6,0.5,3.5,1.4c0.9,0.9,1.3,2.1,1.3,3.5c0,2.9-1.4,5.8-4.1,8.7C272.6,185.8,269.1,187.3,264.9,187.3z"/>
</g>
</svg>
