<?xml version="1.0" encoding="utf-8"?>
<!-- Generator: Adobe Illustrator 21.0.2, SVG Export Plug-In . SVG Version: 6.00 Build 0)  -->
<svg version="1.1" id="Layer_1" xmlns="http://www.w3.org/2000/svg" xmlns:xlink="http://www.w3.org/1999/xlink" x="0px" y="0px"
	 viewBox="0 0 300 300" style="enable-background:new 0 0 300 300;" xml:space="preserve">
<style type="text/css">
	.st0{fill:#17283A;}
	.st1{fill:#FFD279;}
</style>
<path class="st0" d="M296.2,150c0,80.7-65.4,146.2-146.1,146.2S3.8,230.7,3.8,150S69.3,3.8,150,3.8S296.2,69.3,296.2,150"/>
<g>
	<path class="st1" d="M241.5,178.5c0,12.1,0,23.6,0,36c-9.7,0-19.2,0-28.7,0c-3.6,0-7.3,0.1-10.9,0c-9.9-0.4-13.7-6.1-10.5-15.7
		c2.1-6.4-2.6-9.8-6.4-13.5c-3.2-3.1-6.6-3.4-10.5-1.3c-4.3,2.3-12.1-0.9-13.4-5.7c-1.6-6-6-6.4-10.9-6.5c-5.2,0-9.8,0.5-11.4,6.8
		c-1.1,4.3-9.4,7.8-13,5.5c-4.8-3-8.4-1.4-12,2.1c-4,3.8-7.6,7.7-4.6,13.9c2.4,4.9-0.6,12.3-5.8,13c-7.1,1-14.4,1-21.6,1.2
		c-7.6,0.2-15.3,0-23.2,0c0-12.2,0-23.6,0-35.9c23.5-2.6,42.8-14.6,60.3-29.7c23.1,21,37.2,21,62.3,0.1
		C198.7,163.6,217.5,175.8,241.5,178.5z"/>
	<path class="st1" d="M120.8,260.3c-2.3-2.2-4.2-4.1-6.2-6c5.9-8.9,0.1-24-10-25c0-2.9,0-5.8,0-9.5c7.5,1.6,8.7-3.6,10.4-9.2
		c1.5-5.1,6.7-9.8-1.5-15.2c3-1.9,5.4-3.4,8.3-5.3c3.9,7.4,8.9,1.6,13.9-0.5c4.9-2,12-1.8,9.4-10.8c3.4,0,6.1,0,8.8,0
		c-0.4,0.5-0.9,1-1.3,1.6c2.6,2.7,4.9,7.2,7.8,7.6c5.9,0.9,11.2,10.9,18,1.3c2.6,1.8,5.1,3.5,8.1,5.6c-6.3,3.9-5.7,8.9-2.2,14.5
		c2.8,4.4,1.7,12.4,10.9,10.3c0,3.4,0,6.3,0,9.2c-10.3,2.3-16.5,17.3-9.7,25.3c-1.9,2-3.9,4.1-5.8,6.1c-6.8-3.9-6.8-4-15.2-0.4
		c-4.7,2-12.3,1.1-9.7,10.5c-3.3,0-6,0-8.7,0C143.7,260.2,128.4,253.9,120.8,260.3z M149.7,258.3c18.4,0.1,33.5-15.1,33.4-33.3
		c-0.1-17.8-15.4-33.6-32.7-33.7c-17.8-0.1-33.6,15.4-33.9,33.3C116.2,242.7,131.6,258.2,149.7,258.3z"/>
	<path class="st1" d="M128.6,126.4c2.2,0.9,4.5,1.8,6.7,2.6c2,0.7,4.2,2.1,5.9,1.8c3.5-0.8,7-2.2,9.9-4.3c0.8-0.5,0.1-5.5-1-6
		c-3.4-1.6-7.4-2.6-11.2-2.8c-3.3-0.1-6.8,2-10.1,1.7c-7.2-0.8-11.8-5.1-13.8-12.3c-5.7-20.4-3.7-39.5,10.3-55.9
		c13.8-16.3,33.9-16.2,48.5-0.7c19.5,20.7,18,60.4-3,78.9C157.8,140.9,139.4,140.2,128.6,126.4z"/>
	<path class="st1" d="M107.3,69.9c-0.5,6.1-1.5,12.2-1.5,18.3c0,6.1,1,12.2,1.5,18.2c-10.4,0.1-18.7-8.4-18.3-19
		C89.3,77.2,98,69,107.3,69.9z"/>
	<path class="st1" d="M193.1,69.7c8.7-0.4,17.1,7.3,17.7,17c0.7,10.6-7,19.1-17.7,19.8C193.1,94.3,193.1,82.1,193.1,69.7z"/>
	<path class="st1" d="M109,63.4c1.4-15.7,20.9-32.6,37.5-33.9c19.2-1.4,40.2,13.7,43.4,32.8c-1.1-1.9-2.4-3.7-3.4-5.6
		c-5.9-11-14.3-19.1-26.3-22.9c-15-4.8-31.8,1.5-42.1,15.6C115.1,53.5,112.5,58,109,63.4z"/>
	<path class="st1" d="M123.7,222.1c17.8,0,34.9,0,52.4,0c1.5,11-2.8,19-11.3,24.8c-8.8,6-18,6.8-27.5,1.1
		C127.6,242.3,122.8,234,123.7,222.1z"/>
	<path class="st1" d="M173.3,214.1c-15.6,0-31,0-46.5,0c2.5-8.9,12.1-15.7,22.6-16.2C159.2,197.4,169.7,204.5,173.3,214.1z"/>
</g>
</svg>
