<?xml version="1.0" encoding="utf-8"?>
<!-- Generator: Adobe Illustrator 26.0.0, SVG Export Plug-In . SVG Version: 6.00 Build 0)  -->
<svg version="1.1" id="Layer_1" xmlns="http://www.w3.org/2000/svg" xmlns:xlink="http://www.w3.org/1999/xlink" x="0px" y="0px"
	 viewBox="0 0 300 300" style="enable-background:new 0 0 300 300;" xml:space="preserve">
<style type="text/css">
	.st0{fill:#FFFFFF;}
</style>
<path d="M275.98,260.73H17c-6.6,0-12-5.4-12-12V71.38c0-6.6,5.4-12,12-12h258.98c6.6,0,12,5.4,12,12v177.35
	C287.98,255.33,282.58,260.73,275.98,260.73z"/>
<g>
	<path class="st0" d="M206.42,174.95c-0.77,0-1.3,0-1.83,0c-6.09,0-12.18,0.03-18.27-0.01c-7.35-0.05-13.8-5.61-14.67-12.56
		c-0.99-7.91,3.57-14.85,11.08-16.75c1.35-0.34,2.79-0.44,4.19-0.45c5.9-0.05,11.79-0.02,17.69-0.02c0.53,0,1.05,0,1.72,0
		c0.03-0.58,0.08-1.05,0.08-1.52c0.01-6.77,0.01-13.55,0-20.32c-0.01-5.12-3.17-8.26-8.32-8.26c-29.48,0-58.97-0.01-88.45,0
		c-4.91,0-8.18,3.25-8.18,8.12c-0.01,7.8,0,15.59,0,23.39c0,0.39,0.01,0.78-0.03,1.17c-0.12,1.3-1,2.2-2.23,2.3
		c-1.14,0.09-2.25-0.79-2.49-2.01c-0.08-0.43-0.11-0.87-0.11-1.31c0-7.75-0.03-15.49,0.01-23.24c0.03-6.25,3.12-10.84,8.53-12.57
		c1.5-0.48,3.15-0.67,4.74-0.67c29.34-0.04,58.67-0.04,88.01-0.02c6.71,0,11.35,3.37,12.94,9.39c0.36,1.34,0.45,2.79,0.46,4.19
		c0.04,6.77,0.03,13.55,0,20.32c0,0.95,0.17,1.52,1.15,2.03c2.52,1.34,3.79,3.62,3.83,6.45c0.07,4.97,0.07,9.94,0,14.91
		c-0.04,2.89-1.34,5.17-3.93,6.54c-0.83,0.44-1.05,0.93-1.05,1.8c0.03,7.02,0.05,14.03,0,21.05c-0.04,6.45-3.79,11.33-9.76,12.68
		c-1.31,0.3-2.71,0.34-4.06,0.34c-29.09,0.02-58.19,0.02-87.28,0.01c-6.88,0-11.8-3.58-13.23-9.62c-0.24-1.03-0.35-2.12-0.35-3.18
		c-0.03-6.33-0.04-12.67-0.02-19c0.01-2.28,1.49-3.53,3.29-2.84c1.23,0.47,1.57,1.44,1.56,2.68c-0.02,6.19,0,12.38-0.01,18.56
		c0,5.38,3.13,8.55,8.49,8.55c29.43,0,58.87,0,88.3,0c4.92,0,8.15-3.21,8.16-8.13c0.01-6.72,0-13.45,0.01-20.17
		C206.42,176.22,206.42,175.7,206.42,174.95z M197.2,170.05c0-0.01,0-0.01,0-0.02c3.8,0,7.6,0.02,11.4-0.01
		c1.85-0.01,2.78-0.94,2.79-2.79c0.02-4.82,0.03-9.65,0-14.47c-0.01-1.75-0.97-2.68-2.74-2.68c-7.46-0.02-14.91-0.07-22.37,0
		c-5.56,0.05-9.93,4.51-9.95,9.95c-0.02,5.49,4.41,9.93,10.06,10.01C189.98,170.09,193.59,170.05,197.2,170.05z"/>
	<path class="st0" d="M132.59,165c-0.67,0-1.33,0-2,0c-16.76,0-33.53,0-50.29,0c-0.49,0-0.98,0.04-1.46-0.03
		c-1.27-0.17-2.24-1.31-2.19-2.52c0.04-1.17,0.99-2.19,2.23-2.33c0.53-0.06,1.07-0.02,1.61-0.02c16.86,0,33.72,0,50.58,0
		c0.51,0,1.03,0,1.54,0c0.1-0.15,0.2-0.31,0.29-0.46c-1.72-1.62-3.47-3.2-5.15-4.86c-3.4-3.35-6.76-6.74-10.13-10.12
		c-1.23-1.24-1.35-2.71-0.34-3.74c1.06-1.09,2.49-0.97,3.83,0.36c4.56,4.54,9.1,9.09,13.65,13.63c1.9,1.89,3.8,3.78,5.7,5.66
		c1.33,1.33,1.36,2.64,0.06,3.93c-6.42,6.4-12.83,12.8-19.27,19.18c-0.5,0.5-1.13,1-1.78,1.17c-1.06,0.27-2.04-0.11-2.58-1.17
		c-0.55-1.08-0.37-2.1,0.47-2.95c1.88-1.91,3.78-3.8,5.68-5.69c3.25-3.21,6.5-6.42,9.76-9.62
		C132.73,165.27,132.66,165.13,132.59,165z"/>
</g>
</svg>
