<?xml version="1.0" encoding="utf-8"?>
<!-- Generator: Adobe Illustrator 26.0.0, SVG Export Plug-In . SVG Version: 6.00 Build 0)  -->
<svg version="1.1" id="Layer_1" xmlns="http://www.w3.org/2000/svg" xmlns:xlink="http://www.w3.org/1999/xlink" x="0px" y="0px"
	 viewBox="0 0 84 97" style="enable-background:new 0 0 84 97;" xml:space="preserve">
<style type="text/css">
	.st0{fill:#FFFFFF;}
	.st1{fill:none;stroke:#FFFFFF;stroke-miterlimit:10;}
</style>
<circle cx="42" cy="50.7" r="28"/>
<g>
	<path class="st1" d="M41.1,70.8c-3.3,0-6.5,0-9.8,0c-3.8,0-6.7-4.2-6.7-9.9c0-6.7,0-13.4,0-20.1c0-1.8,0.6-2.6,1.7-3.1
		c1.6-0.6,3.1-1.4,4.7-2.2c4.7-2.2,9.3-4.3,14-6.6c1.7-0.9,3.2-0.2,4.6,1.2c1.6,1.6,2.4,4,2.6,6.8c0,0.7,0.2,0.9,0.7,1.1
		c3.1,1,4.8,4.3,4.8,8.9c0,4.6,0,9.3,0,13.9c0,4.3-1.8,8.1-4.4,9.3c-0.7,0.3-1.6,0.5-2.3,0.5C47.6,70.8,44.4,70.8,41.1,70.8z
		 M25.6,45.7c0,0.5,0,0.8,0,1.1c0,4.6,0,9.1,0,13.7c0,5.2,2.6,8.8,5.9,8.7c6.5-0.1,13,0,19.5,0c0.4,0,0.9,0,1.3-0.1
		c2.6-0.8,4.4-4.1,4.4-8.1c0-4.8,0-9.6,0-14.4c0-0.3,0-0.5-0.1-0.8C46.3,45.7,36,45.7,25.6,45.7z M56.4,44.2
		c-0.3-0.7-0.4-1.2-0.7-1.7c-1.2-2.3-2.8-3.2-4.7-3.2c-8,0-16.1,0-24.1,0c-0.2,0-0.5-0.1-0.7,0.1c-0.3,0.2-0.6,0.6-0.6,0.9
		c-0.1,1.3,0,2.6,0,3.9C35.9,44.2,46.1,44.2,56.4,44.2z M51.1,37.6c0.1-2.9-1.3-6.2-3.3-7.1c-0.7-0.3-1.5-0.5-2.1-0.2
		c-5,2.2-10,4.6-14.9,6.9c-0.1,0.1-0.3,0.2-0.5,0.4C37.3,37.6,44.2,37.6,51.1,37.6z"/>
	<path class="st1" d="M51.8,57.5c1.6,0,2.9,1.9,2.9,4.3c0,2.4-1.3,4.3-2.8,4.3c-1.6,0-2.9-2-2.9-4.3C49,59.4,50.2,57.5,51.8,57.5z
		 M53.7,61.8c0-1.6-0.8-2.9-1.9-2.9c-1,0-1.9,1.2-1.9,2.8c0,1.6,0.8,2.9,1.8,2.9C52.8,64.6,53.7,63.4,53.7,61.8z"/>
</g>
</svg>
