<?xml version="1.0" encoding="utf-8"?>
<!-- Generator: Adobe Illustrator 26.0.0, SVG Export Plug-In . SVG Version: 6.00 Build 0)  -->
<svg version="1.1" id="Layer_1" xmlns="http://www.w3.org/2000/svg" xmlns:xlink="http://www.w3.org/1999/xlink" x="0px" y="0px"
	 viewBox="0 0 84 97" style="enable-background:new 0 0 84 97;" xml:space="preserve">
<style type="text/css">
	.st0{fill:#E81E25;}
	.st1{opacity:0.6;fill:#F59F20;}
</style>
<g>
	<path class="st0" d="M41.6,62.3c-1.4,0.8-2.8,1.7-4.3,2.4c-9.8,4.8-21.6,1.5-27.7-7.8c-5.9-9-4.1-21.3,4-28.2
		c7.8-6.7,18.6-7,26.7-1.3c0.4,0.3,0.7,0.6,1.3,0.6c0,0.5,0.4,0.7,0.7,1c5,4.7,7.4,10.4,7.1,17.3c-0.2,4.1-1.4,7.8-3.8,11.2
		C44.4,59.2,43,60.7,41.6,62.3z"/>
	<path class="st1" d="M68.9,62.3c-1.4,0.8-2.8,1.7-4.3,2.4C54.8,69.5,43,66.2,37,57c-5.9-9-4.1-21.3,4-28.2c7.8-6.7,18.6-7,26.7-1.3
		c0.4,0.3,0.7,0.6,1.3,0.6c0,0.5,0.4,0.7,0.7,1c5,4.7,7.4,10.4,7.1,17.3c-0.2,4.1-1.4,7.8-3.8,11.2C71.7,59.2,70.3,60.7,68.9,62.3z"
		/>
	<path class="st0" d="M9.7,74.9c0-0.5,0-1,0-1.4c0-1-0.2-1.9,1.4-1.2c0.6,0.3,1.5-0.6,2.1-0.2c1,0.6,1.7,0.5,2.7,0
		c1.6-0.6,2.9,0.5,3,2.2c0,0.9,0,1.7,0,2.6c0,0.5,0.2,1.1-0.7,1.1c-0.9,0-0.8-0.6-0.8-1.2c0-0.7,0-1.4,0-2.1c0-0.8-0.3-1.4-1.2-1.4
		c-0.9,0-1.3,0.6-1.3,1.4c0,0.9,0,1.7,0,2.6c0,0.4,0,0.8-0.6,0.8c-0.6,0-0.7-0.3-0.7-0.8c0-0.9,0-1.7,0-2.6c0-0.8-0.4-1.4-1.3-1.4
		c-0.9,0-1.2,0.6-1.3,1.4c0,0.9,0,1.7,0,2.6c0,0.6-0.3,0.7-0.8,0.7c-0.6,0-0.6-0.4-0.6-0.8C9.7,76.4,9.7,75.6,9.7,74.9z"/>
	<path class="st0" d="M71.7,72.5c0-0.8,0-1.4,0-2.1c0-0.4,0-0.8,0.6-0.7c0.5,0,0.7,0.2,0.7,0.7c0,2.3,0,4.7,0,7
		c0,0.4-0.3,0.7-0.6,0.5c-0.8-0.5-1.5,0-2.3,0.1c-1.3,0.1-2.2-0.5-2.8-1.6c-0.6-1.2-0.5-2.4,0.4-3.5c0.8-1,1.9-1.2,3.1-0.8
		C71.1,72.2,71.4,72.3,71.7,72.5z M70.3,73.1c-1.2,0.1-1.8,0.7-1.8,1.8c-0.1,1,0.8,1.9,1.7,1.9c1.1,0,1.6-0.7,1.7-1.7
		C71.9,73.9,71.3,73.3,70.3,73.1z"/>
	<path class="st0" d="M61.4,75c0,0.3,0.1,0.7,0,1c-0.2,0.8,0.8,2.9-1.5,1.5c-0.1-0.1-0.4,0.3-0.6,0.3c-1.3,0.4-2.4,0.1-3.3-1
		c-0.8-1.1-0.8-2.8,0.1-3.8c0.9-1.1,2-1.4,3.3-0.8c0.2,0.1,0.4,0.3,0.5,0.3c2.4-1.3,1.4,0.8,1.6,1.6C61.5,74.3,61.4,74.7,61.4,75z
		 M60.2,75c0-1-0.8-1.9-1.7-1.8c-1.1,0.1-1.6,0.7-1.7,1.7c0,1.1,0.5,1.8,1.6,1.9C59.4,76.9,60.2,76,60.2,75z"/>
	<path class="st0" d="M26.1,74.8c0,0.8,0,1.5,0,2.3c0,0.4-0.1,1-0.5,0.8C24.6,77.4,23.8,78,23,78c-1.2,0-2.1-0.6-2.6-1.7
		c-0.6-1.2-0.4-2.4,0.5-3.4c0.8-0.9,1.8-1.1,3-0.9c0.1,0,0.3,0.1,0.4,0.2c0.6,0.5,1.6-1.1,1.9,0.4C26.2,73.3,26,74.1,26.1,74.8
		C26.1,74.8,26.1,74.8,26.1,74.8z M23,73.1c-1.1,0.2-1.6,0.8-1.6,1.9c0,1.1,0.8,1.9,1.8,1.7c1-0.1,1.6-0.8,1.6-1.9
		C24.8,73.8,24.2,73.2,23,73.1z"/>
	<path class="st0" d="M42.2,75.5c-0.2,0-0.5,0-0.7,0c-0.4,0.1-1.1-0.3-1.2,0.3c0,0.6,0.6,0.9,1.2,0.9c0.5,0.1,1-0.1,1.5-0.3
		c0.4-0.2,0.6,0,0.8,0.3c0.3,0.4,0,0.6-0.3,0.8c-1,0.7-2.8,0.5-3.8-0.2c-1-0.8-1.4-2.5-0.8-3.8c0.6-1.3,1.7-1.8,3-1.6
		c1.4,0.2,2.5,1.6,2.3,3c0,0.4-0.2,0.6-0.6,0.6C43.2,75.5,42.7,75.5,42.2,75.5z M41.5,74.4c0.4-0.3,1.3,0.4,1.3-0.5
		c0-0.6-0.7-0.8-1.3-0.8c-0.6,0-1.3,0.3-1.2,0.9C40.3,74.8,41.1,74.2,41.5,74.4z"/>
	<path class="st0" d="M29.2,78c-0.2,0-0.7-0.2-1.3-0.4c-0.3-0.1-0.7-0.3-0.5-0.8c0.2-0.4,0.5-0.6,0.9-0.3c0.6,0.4,1.3,0.3,1.9,0.3
		c0.4,0,0.7-0.2,0.7-0.6c0-0.3-0.3-0.4-0.6-0.5c-0.5-0.1-1-0.1-1.5-0.3c-0.7-0.2-1.3-0.6-1.3-1.5c0-0.8,0.3-1.4,1.1-1.7
		c1-0.5,2-0.4,3.1,0c0.4,0.1,0.7,0.3,0.5,0.8c-0.2,0.4-0.5,0.5-0.9,0.4c-0.5-0.2-1-0.3-1.5-0.2c-0.3,0.1-0.7,0.2-0.7,0.6
		c0,0.3,0.3,0.4,0.6,0.5c0.4,0.1,0.8,0.1,1.1,0.2c1,0.2,1.7,0.6,1.7,1.8c0,1.1-0.8,1.5-1.8,1.8C30.2,78,29.9,78,29.2,78z"/>
	<path class="st0" d="M36.6,78c-1.6,0.1-2.2-0.6-2.3-1.9c-0.1-0.7,0-1.3,0-2c0-0.4,0.1-0.9-0.6-0.9c-0.4,0-0.6-0.2-0.6-0.6
		c0-0.3,0.1-0.6,0.5-0.6c0.8,0,0.7-0.5,0.7-0.9c0-0.5,0.1-0.8,0.7-0.8c0.6,0,0.8,0.3,0.7,0.8c-0.1,0.9,0.4,1,1.1,1
		c0.5,0,1-0.1,1,0.7c0,0.7-0.5,0.5-0.9,0.5c-2.1,0-0.9,1.6-1.1,2.4c-0.2,0.9,0.4,1.3,1.3,1c0.5-0.2,0.6,0.1,0.8,0.5
		c0.1,0.5-0.1,0.6-0.5,0.7C37,77.9,36.7,78,36.6,78z"/>
	<path class="st0" d="M52.8,78c-1.3,0-2.3-0.5-2.9-1.7c-0.5-1.2-0.4-2.5,0.5-3.5c0.9-1,2.2-1.1,3.4-0.8c0.4,0.1,1,0.2,0.7,1
		c-0.3,0.7-0.7,0.4-1.1,0.2c-0.9-0.3-1.6-0.1-2.1,0.6c-0.5,0.7-0.5,1.4,0,2.2c0.5,0.8,1.2,0.9,2,0.7c0.5-0.1,1.1-0.6,1.3,0.3
		c0.2,0.9-0.7,0.8-1.2,1C53.2,78,53,78,52.8,78z"/>
	<path class="st0" d="M63,74.9c0-0.4,0-0.9,0-1.3c0.1-0.9-0.3-2.3,1.5-1.2c0.2,0.1,0.8-0.5,1.4-0.4c0.3,0,0.7-0.1,0.7,0.4
		c0,0.3-0.1,0.8-0.5,0.8c-2.2-0.2-1.7,1.4-1.8,2.6c0,0.5,0,1,0,1.6c0,0.4-0.1,0.6-0.6,0.6c-0.4,0-0.8-0.1-0.8-0.6
		C63,76.5,63,75.7,63,74.9C63,74.9,63,74.9,63,74.9z"/>
	<path class="st0" d="M45.6,74.8c0-0.5,0-0.9,0-1.4c0-1.4,0-1.3,1.3-1.1c0.5,0.1,0.8-0.5,1.4-0.4c0.3,0.1,0.9-0.2,0.8,0.4
		c0,0.4-0.1,0.8-0.6,0.8c-1.6-0.1-1.6,0.9-1.6,2.1c0,0.5,0,1,0,1.6c0,0.4,0.3,1.1-0.6,1.2c-1,0-0.6-0.7-0.7-1.2
		C45.6,76.1,45.6,75.4,45.6,74.8z"/>
</g>
</svg>
