<?xml version="1.0" encoding="utf-8"?>
<!-- Generator: Adobe Illustrator 26.0.0, SVG Export Plug-In . SVG Version: 6.00 Build 0)  -->
<svg version="1.1" id="Layer_1" xmlns="http://www.w3.org/2000/svg" xmlns:xlink="http://www.w3.org/1999/xlink" x="0px" y="0px"
	 viewBox="0 0 300 300" style="enable-background:new 0 0 300 300;" xml:space="preserve">
<style type="text/css">
	.st0{fill:#17283A;}
	.st1{fill:#FFD279;}
</style>
<g>
	<path class="st0" d="M296.44,150.61c0,80.72-65.44,146.15-146.15,146.15S4.13,231.33,4.13,150.61
		C4.13,69.89,69.57,4.45,150.29,4.45S296.44,69.89,296.44,150.61"/>
	<path class="st1" d="M108.46,143.62c6.09,4.95,12.7,8.79,20.08,11.09c21.57,6.7,41.44,3.24,59.46-10.42
		c0.76-0.57,1.21-0.53,1.93-0.09c16.55,10.08,28.2,24.18,34.83,42.39c3.01,8.26,4.39,16.82,4.68,25.6
		c0.22,6.54-2.32,11.79-7.01,16.15c-5.26,4.89-11.57,7.95-18.21,10.39c-9.29,3.42-18.93,5.38-28.73,6.67
		c-11.82,1.55-23.68,2.04-35.58,1.53c-15.93-0.68-31.64-2.74-46.74-8.18c-5.57-2-10.87-4.55-15.62-8.14
		c-6.74-5.11-10.15-11.57-9.63-20.33c1.31-21.9,9.73-40.4,25.54-55.55C97.96,150.42,102.96,146.75,108.46,143.62"/>
	<path class="st1" d="M148.7,41.16c29.36-0.06,53.31,23.92,53.34,53.39c0.02,29.51-23.84,53.31-53.47,53.35
		c-29.34,0.04-53.24-23.86-53.27-53.28C95.26,65.11,119.13,41.22,148.7,41.16"/>
</g>
</svg>
