<?xml version="1.0" encoding="utf-8"?>
<!-- Generator: Adobe Illustrator 26.0.0, SVG Export Plug-In . SVG Version: 6.00 Build 0)  -->
<svg version="1.1" id="Layer_1" xmlns="http://www.w3.org/2000/svg" xmlns:xlink="http://www.w3.org/1999/xlink" x="0px" y="0px"
	 viewBox="0 0 300 300" style="enable-background:new 0 0 300 300;" xml:space="preserve">
<style type="text/css">
	.st0{fill:#00979E;}
	.st1{fill:#FFFFFF;}
</style>
<g>
	<path class="st0" d="M278.19,239.9H25.91c-6.6,0-12-5.4-12-12V55.32c0-6.6,5.4-12,12-12h252.28c6.6,0,12,5.4,12,12V227.9
		C290.19,234.5,284.79,239.9,278.19,239.9z"/>
	<path class="st1" d="M98.34,110.58c-5.02,0-9.85,0-14.67,0c-4.8,0.01-6.79-1.96-6.8-6.78c-0.01-7.4,0.26-14.8-0.05-22.19
		c-0.37-8.74,6.53-14.09,13-14.57c6.31-0.47,12.67-0.45,19.01-0.46c30.26-0.04,60.52-0.02,90.77-0.02c3.89,0,5.94,2.15,5.94,6.26
		c0,32.76,0,65.53-0.01,98.29c0,0.77,0,1.55,0,2.54c4.14,0,8.03,0,11.93,0c1.59,0,3.18-0.05,4.77,0.02c2.84,0.12,4.99,2.2,5.01,5.05
		c0.05,8.5,0.13,17-0.05,25.49c-0.14,6.8-6.51,12.37-13.91,12.39c-17.91,0.05-35.82,0.03-53.73,0.03c-14.98,0-29.95,0.1-44.93-0.07
		c-6.67-0.07-12.04-2.93-15.18-9.05c-0.8-1.56-1.26-3.47-1.29-5.23c-0.14-7.39-0.1-14.79-0.06-22.19
		c0.1-22.54,0.23-45.09,0.34-67.63C98.43,111.93,98.37,111.39,98.34,110.58z M108.75,77.04c0,0.59-0.01,1.07,0,1.54
		c0.13,9.58,0.35,19.16,0.37,28.74c0.05,31.1,0.02,62.21,0.02,93.31c0,2.84,1.01,4.28,3.65,5.2c3.51,1.24,7.05-1.13,7.06-4.75
		c0.02-6.78,0.01-13.57,0-20.35c0-4.96,1.76-6.75,6.7-6.75c21.88-0.01,43.75-0.01,65.63-0.02c0.77,0,1.55,0,2.38,0
		c0-32.48,0-64.69,0-96.93C165.88,77.04,137.37,77.04,108.75,77.04z M130.67,206.14c0.47,0,1.31,0,2.16,0
		c16.49,0.01,32.98,0.02,49.47,0.03c10.32,0,20.64,0.01,30.97-0.01c2.84-0.01,3.29-0.5,3.3-3.33c0.01-2.87,0-5.74,0-8.61
		c0-3.1,0-6.2,0-9.35c-28.74,0-57.27,0-85.89,0c0,3.63,0,7.11,0,10.59C130.67,198.92,130.67,202.38,130.67,206.14z M87.66,99.57
		c3.7,0,7.02,0,10.41,0c0-6.45,0.03-12.73-0.04-19.01c-0.01-0.63-0.4-1.55-0.9-1.83c-1.36-0.75-2.82-1.54-4.32-1.73
		c-2.76-0.36-5.14,2.03-5.14,4.78c0,4.33,0,8.66,0,13C87.66,96.35,87.66,97.92,87.66,99.57z"/>
	<path class="st1" d="M151.38,98.53c-8.85,0-17.71-0.01-26.56,0c-3.34,0-5.82-2.31-5.81-5.5c0.01-3.14,2.33-5.38,5.69-5.38
		c17.89-0.01,35.78-0.01,53.67-0.01c2.4,0,4.31,0.89,5.4,3.08c0.99,1.98,0.74,3.92-0.6,5.67c-1.26,1.65-3.06,2.09-5.04,2.08
		c-8.91-0.01-17.83,0-26.74,0C151.38,98.49,151.38,98.51,151.38,98.53z"/>
	<path class="st1" d="M152.45,163.18c-8.56,0-17.11,0-25.67,0c-1.33,0-2.7,0.18-3.99-0.06c-2.8-0.52-4.47-3.07-4.15-6
		c0.29-2.62,2.51-4.66,5.23-4.66c18.34-0.01,36.67,0,55.01,0.03c3.13,0.01,5.41,2.31,5.42,5.27c0.01,3.08-2.23,5.4-5.45,5.42
		c-8.8,0.05-17.6,0.02-26.4,0.02C152.45,163.19,152.45,163.18,152.45,163.18z"/>
	<path class="st1" d="M151.68,141.47c-9.04,0-18.07,0-27.11,0c-2.36,0-4.1-1.09-5.1-3.22c-0.94-2.01-0.66-4.53,1.04-5.89
		c1.1-0.88,2.69-1.61,4.07-1.62c17.95-0.11,35.9-0.08,53.85-0.06c3.52,0,5.88,2.21,5.89,5.37c0.01,3.17-2.35,5.37-5.89,5.38
		c-8.91,0.02-17.83,0.01-26.74,0.01C151.68,141.44,151.68,141.45,151.68,141.47z"/>
	<path class="st1" d="M152.38,109.42c9.22,0,18.45,0,27.67,0c3.07,0,5.36,2.26,5.35,5.28c-0.01,2.98-2.41,5.39-5.35,5.37
		c-8.24-0.06-16.49-0.16-24.73-0.19c-10.02-0.03-20.04,0-30.06-0.02c-2.47-0.01-4.36-1.34-5.1-3.46c-0.75-2.17-0.17-4.54,1.71-5.9
		c0.78-0.56,1.87-0.97,2.83-0.98c9.22-0.07,18.45-0.04,27.67-0.04C152.38,109.47,152.38,109.44,152.38,109.42z"/>
</g>
</svg>
