<?xml version="1.0" encoding="utf-8"?>
<!-- Generator: Adobe Illustrator 26.0.0, SVG Export Plug-In . SVG Version: 6.00 Build 0)  -->
<svg version="1.1" id="Layer_1" xmlns="http://www.w3.org/2000/svg" xmlns:xlink="http://www.w3.org/1999/xlink" x="0px" y="0px"
	 viewBox="0 0 84 97" style="enable-background:new 0 0 84 97;" xml:space="preserve">
<style type="text/css">
	.st0{fill:#FFFFFF;}
	.st1{fill:none;stroke:#FFFFFF;stroke-miterlimit:10;}
</style>
<circle cx="42" cy="50.7" r="28"/>
<g>
	<path class="st1" d="M51.2,38.9c0.1,0,0.2,0,0.3,0c1.2,0,2.4,0,3.6,0c1,0,1.8,0.8,1.9,1.9c0,0.2,0,0.4,0,0.6c0,2.2,0,4.3,0,6.5
		c0,0.1,0,0.3,0,0.4c0.3,0,0.6,0,0.8,0c0.4,0,0.7,0,1.1,0c0.4,0,0.6,0.2,0.6,0.6c0,2.1,0,4.2,0,6.3c0,0.5-0.2,0.7-0.7,0.7
		c-0.5,0-1,0-1.6,0c-0.1,0-0.2,0-0.3,0c0,0.1,0,0.3,0,0.4c0,2.2,0,4.5,0,6.7c0,0.6-0.1,1.1-0.5,1.6c-0.4,0.4-0.8,0.7-1.4,0.7
		c-0.1,0-0.2,0-0.2,0c-9.8,0-19.6,0-29.3,0c-1.2,0-2-0.9-2-2.1c0-8.5,0-17.1,0-25.6c0-1.2,0.5-2,1.4-2.6c0.6-0.4,1.2-0.5,1.8-0.6
		c1.9-0.4,3.7-0.8,5.6-1.1c3.7-0.8,7.4-1.5,11.2-2.3c1.2-0.3,2.5-0.5,3.7-0.7c2-0.3,3.9,1.5,3.9,3.6c0,1.6,0,3.2,0,4.8
		C51.2,38.7,51.2,38.8,51.2,38.9z M24.8,39.6c0,0.2,0,0.2,0,0.3c0,7.6,0,15.3,0,22.9c0,0.1,0,0.2,0,0.3c0,0.6,0.4,1,1,1
		c8.4,0,16.7,0,25.1,0c1.4,0,2.9,0,4.3,0c0.2,0,0.4-0.1,0.6-0.2c0.3-0.2,0.4-0.6,0.4-0.9c0-2.3,0-4.5,0-6.8c0-0.1,0-0.2,0-0.3
		c-0.1,0-0.2,0-0.3,0c-0.8,0-1.6,0-2.5,0C51.4,55.7,50,54,50,52c0-1.9,1.4-3.6,3.2-3.7c0.8-0.1,1.6,0,2.5,0c0.1,0,0.2,0,0.3,0
		c0-0.1,0-0.2,0-0.3c0-1.7,0-3.4,0-5.1c0-0.6,0-1.1,0-1.7c0-0.7-0.5-1-1-1c-9.3,0-18.6,0-27.9,0C26.3,40.1,25.5,40.1,24.8,39.6z
		 M50.1,38.9c0-0.1,0-0.1,0-0.2c0-1.7,0-3.3,0-5c0-1.4-1.4-2.6-2.6-2.4c-1.3,0.2-2.6,0.5-3.8,0.8c-2.9,0.6-5.8,1.2-8.6,1.8
		c-2.8,0.6-5.6,1.1-8.3,1.7c-0.5,0.1-0.9,0.2-1.3,0.6c-0.5,0.5-0.7,1-0.5,1.6c0.2,0.7,0.8,1.1,1.6,1.1c7.8,0,15.5,0,23.3,0
		C49.9,38.9,50,38.9,50.1,38.9z M58.5,54.7c0-1.7,0-3.4,0-5.2c-0.1,0-0.2,0-0.3,0c-1.5,0-3,0-4.4,0c-0.2,0-0.4,0-0.5,0
		c-1.6,0.2-2.6,2.3-1.7,3.8c0.5,0.9,1.2,1.4,2.2,1.4c1.5,0,3.1,0,4.6,0C58.4,54.7,58.4,54.7,58.5,54.7z"/>
	<path class="st1" d="M55.4,52.1c0,0.9-0.7,1.6-1.5,1.6c-0.9,0-1.6-0.7-1.5-1.6c0-0.9,0.7-1.6,1.5-1.6
		C54.7,50.4,55.4,51.2,55.4,52.1z M54.2,52.1c0-0.2-0.2-0.4-0.4-0.4c-0.2,0-0.4,0.2-0.4,0.4c0,0.2,0.2,0.4,0.4,0.4
		C54.1,52.5,54.2,52.3,54.2,52.1z"/>
	<path class="st1" d="M54.2,52.1c0,0.2-0.2,0.4-0.4,0.4c-0.2,0-0.4-0.2-0.4-0.4c0-0.2,0.2-0.4,0.4-0.4
		C54.1,51.7,54.2,51.9,54.2,52.1z"/>
</g>
</svg>
