<?xml version="1.0" encoding="utf-8"?>
<!-- Generator: Adobe Illustrator 26.0.0, SVG Export Plug-In . SVG Version: 6.00 Build 0)  -->
<svg version="1.1" id="Layer_1" xmlns="http://www.w3.org/2000/svg" xmlns:xlink="http://www.w3.org/1999/xlink" x="0px" y="0px"
	 viewBox="0 0 84 97" style="enable-background:new 0 0 84 97;" xml:space="preserve">
<style type="text/css">
	.st0{fill:#2F2F6E;}
	.st1{fill:#F3B71B;}
</style>
<g>
	<path class="st0" d="M40.4,33.3c-11.9,0-23.8,0-35.7,0c-1.3,0-1.7-0.3-1.6-1.6c0.1-1.4,0.1-2.8,0-4.2c0-0.8,0.2-1.1,1-1
		c0.3,0,0.5,0,0.8,0c23.7,0,47.5,0,71.2,0c1.4,0,2,0.3,1.8,1.8c-0.2,1.6,0.7,3.9-0.4,4.8c-0.9,0.8-3.1,0.3-4.7,0.3
		C61.9,33.3,51.1,33.3,40.4,33.3z"/>
	<path class="st1" d="M40.2,73.1c-11.7,0-23.4,0-35.1,0c-2.1,0-2.1,0-2.1-2.2c0-0.8,0-1.6,0-2.4c0-2.2,0-2.2,2.1-2.2
		c23.6,0,47.2,0,70.8,0c1.4,0,2.1,0.3,1.9,1.8c-0.2,1.6,0.7,3.7-0.4,4.7c-1,0.9-3,0.3-4.6,0.3C61.9,73.1,51.1,73.1,40.2,73.1z"/>
	<path class="st0" d="M61.4,56.4c-0.5,0-1,0.1-1.4,0c-1.2-0.2-1.9,0.2-2.1,1.5c-0.2,1.3-1.1,1.3-2.1,1.3c-3.4,0-3.4,0-2.1-3.1
		c1.9-4.5,3.7-9,5.5-13.4c0.5-1.3,1.3-1.9,2.8-1.9c3.6,0.1,3.6,0,4.4,3.7c0.9,4.3,1.8,8.6,2.7,12.9c0.4,1.9,0.4,1.9-1.4,1.9
		c-0.3,0-0.6,0-0.9,0c-1.3,0.2-2-0.2-2-1.6c0-0.8-0.4-1.2-1.3-1.1C62.7,56.4,62.1,56.4,61.4,56.4z M62.1,46.3
		c-0.8,2.1-1.4,3.8-2,5.5c-0.2,0.6-0.1,1,0.7,1c0.7,0,1.4,0,2,0c0.4,0,0.9-0.3,0.8-0.8C63.1,50.3,63.1,48.4,62.1,46.3z"/>
	<path class="st0" d="M10.7,40.6c2.8,0,5.6-0.1,8.4,0c1.2,0,1.7,1,1.9,2.1c0.6,3.3,1.2,6.6,1.9,9.9c0.5-0.4,0.6-1,0.8-1.5
		c0.9-3.3,2.7-6.3,3.8-9.6c0.3-0.8,0.7-1,1.5-1c4.1-0.1,4.1-0.1,2.5,3.6c-1.9,4.5-3.8,9-5.7,13.6c-0.4,0.9-0.8,1.4-1.8,1.2
		c-1.3-0.2-2.9,0.7-3.8-0.5c-0.8-0.9-0.6-2.5-1-3.7c-0.9-3-1.8-6.1-2.4-9.2c-0.4-2.1-1.5-3.3-3.5-3.8C12.3,41.7,11.4,41.6,10.7,40.6
		z"/>
	<path class="st0" d="M44.2,59.3c-1.3,0-2.7-0.2-4-0.5c-0.8-0.2-1.3-0.5-1-1.5c0.3-0.9,0.2-2.1,0.8-2.7c0.6-0.6,1.6,0.4,2.4,0.6
		c1.3,0.2,2.6,0.4,3.9,0c0.7-0.2,1.2-0.7,1.3-1.4c0.1-0.7-0.4-1.2-0.9-1.5c-1.1-0.6-2.2-1.2-3.3-1.9c-3.1-2.1-3.3-6-0.2-8.3
		c2.9-2.2,6.2-2.1,9.6-1.2c0.6,0.2,0.7,0.5,0.6,1c-0.1,0.6-0.2,1.1-0.4,1.7c-0.2,0.7-0.7,1.2-1.5,1c-1.2-0.3-2.5,0-3.8-0.1
		c-0.8-0.1-1.5,0.3-1.7,1.1c-0.2,0.7,0.3,1.2,0.8,1.5c1.1,0.6,2.2,1.2,3.2,1.9c3.4,2.3,3.3,6.8-0.2,9.1C48.2,59,46.3,59.4,44.2,59.3
		z"/>
	<path class="st0" d="M33.4,59.1c-2.5,0-2.4,0-1.9-2.4c1-4.8,2.1-9.6,3.1-14.4c0.3-1.3,0.7-1.8,2.1-1.7c3.1,0.1,3.1,0,2.5,3.1
		c-0.9,4.3-1.8,8.7-2.8,13C35.8,59.1,35.8,59.1,33.4,59.1z"/>
</g>
</svg>
