<?xml version="1.0" encoding="utf-8"?>
<!-- Generator: Adobe Illustrator 26.0.0, SVG Export Plug-In . SVG Version: 6.00 Build 0)  -->
<svg version="1.1" id="Layer_1" xmlns="http://www.w3.org/2000/svg" xmlns:xlink="http://www.w3.org/1999/xlink" x="0px" y="0px"
	 viewBox="0 0 84 97" style="enable-background:new 0 0 84 97;" xml:space="preserve">
<g>
	<path d="M57.1,30.6c1.9,0,3.6,0,5.4,0c2.5,0,3.9,1.3,3.9,3.8c0,1,0,2,0,3c0.2,0,0.3,0.1,0.4,0.1c2.3,0.1,3.4,1.3,3.4,3.6
		c0,1.7,0,3.4,0,5.1c0,0,0,0.1,0.1,0.2c0.4,0,0.8,0,1.3,0c0.9,0,1.2,0.4,1.2,1.2c0,2.3,0,4.6,0,6.9c0,0.8-0.4,1.1-1.2,1.2
		c-0.4,0-0.9,0-1.4,0c0,1.4,0,2.7,0,4.1c0,1.3-0.3,2.5-1.1,3.5c-1.2,1.7-2.8,2.5-4.8,2.5c-2.1,0-4.1,0-6.2,0c-0.3,0-0.6,0-1,0
		c0,0.4,0,0.6,0,0.9c0,3,0,6,0,9c0,4.4-3.5,7.9-8,7.9c-9,0-18,0-27,0c-4.4,0-8-3.5-8-8c0-18.4,0-36.8,0-55.2c0-4.6,3.5-8.1,8.1-8.1
		c8.9,0,17.8,0,26.7,0c4.6,0,8.1,3.5,8.1,8.1c0,3,0,6,0,8.9C57.1,29.9,57.1,30.2,57.1,30.6z M55,30.6c0-0.4,0-0.7,0-0.9
		c0-2.9,0-5.8,0-8.7c0-3.7-2.5-6.2-6.2-6.2c-8.8,0-17.6,0-26.4,0c-0.5,0-1.1,0-1.6,0.2c-2.8,0.7-4.5,3-4.5,6.1c0,16.8,0,33.6,0,50.3
		c0,1.4,0,2.9,0,4.3c0.1,3.5,2.6,6,6,6c8.9,0,17.8,0,26.7,0c3.5,0,6-2.6,6-6.1c0-3,0-5.9,0-8.9c0-0.3,0-0.5,0-0.8c-0.4,0-0.7,0-1,0
		c-6.2,0-12.5,0-18.7,0c-4,0-6.4-2.5-6.4-6.5c0-7.9,0-15.9,0-23.8c0-3.2,1.8-5,5-5c6.7,0,13.5,0,20.2,0C54.3,30.6,54.6,30.6,55,30.6
		z M67.9,55.8c-1.4,0-2.6,0-3.9,0c-2.3-0.1-4.2-1.8-4.4-4c-0.2-2.4,1.2-4.7,3.6-5.1c1.3-0.2,2.6-0.1,3.9-0.1c0.3,0,0.6,0,1,0
		c0-1.8,0-3.5,0-5.2c0-1.4-0.3-1.7-1.7-1.7c-10.4,0-20.7,0-31.1,0c-1.4,0-2.9,0.2-4.2-0.6c0,0.2,0,0.4,0,0.5c0,6.8,0,13.6,0,20.4
		c0,0.3,0,0.6,0.1,0.9c0.5,1.9,1.9,3,4.2,3c5.2,0,10.3,0,15.5,0c4.3,0,8.6,0,12.9,0c2.4,0,4-1.2,4.3-3.3
		C68.1,59,67.9,57.5,67.9,55.8z M64.1,37.5c0-0.1,0.1-0.2,0.1-0.2c0-0.9,0-1.8,0-2.7c0-1.5-0.3-1.8-1.8-1.8c-9.5,0-19,0-28.5,0
		c-0.3,0-0.5,0-0.8,0c-1,0.1-1.7,0.6-2,1.5c-0.7,1.7,0.6,3.2,2.6,3.2c9.9,0,19.7,0,29.6,0C63.6,37.6,63.8,37.6,64.1,37.5z
		 M70.6,48.7c-2.1,0-4.2,0-6.3,0c-1.5,0-2.6,1.1-2.6,2.5c0,1.4,1.1,2.5,2.6,2.5c1.5,0,3.1,0,4.6,0c0.5,0,1.1,0,1.7,0
		C70.6,52,70.6,50.4,70.6,48.7z"/>
	<path d="M35.6,21.6c-3,0-6.1,0-9.1,0c-0.3,0-0.7,0-0.9-0.2c-0.3-0.2-0.6-0.6-0.6-0.9c0-0.3,0.3-0.7,0.6-1c0.2-0.2,0.6-0.1,0.9-0.1
		c6,0,12.1,0,18.1,0c0.1,0,0.3,0,0.4,0c0.7,0.1,1.2,0.5,1.2,1.1c-0.1,0.7-0.5,1-1.2,1c-0.9,0-1.8,0-2.8,0
		C40.1,21.6,37.8,21.6,35.6,21.6z"/>
	<path d="M35.6,77.2c-1,0-2,0-3,0c-0.7,0-1.2-0.4-1.2-1.1c0-0.6,0.5-1.1,1.2-1.1c2,0,4,0,6,0c0.8,0,1.2,0.4,1.2,1.1
		c0,0.6-0.5,1-1.2,1C37.6,77.2,36.6,77.2,35.6,77.2z"/>
	<path d="M64.3,52.7c-0.8,0-1.4-0.6-1.4-1.5c0-0.9,0.7-1.5,1.5-1.5c0.8,0,1.5,0.7,1.5,1.5C65.9,52,65.2,52.7,64.3,52.7z"/>
</g>
</svg>
