<?xml version="1.0" encoding="utf-8"?>
<!-- Generator: Adobe Illustrator 26.0.0, SVG Export Plug-In . SVG Version: 6.00 Build 0)  -->
<svg version="1.1" id="Layer_1" xmlns="http://www.w3.org/2000/svg" xmlns:xlink="http://www.w3.org/1999/xlink" x="0px" y="0px"
	 viewBox="0 0 300 300" style="enable-background:new 0 0 300 300;" xml:space="preserve">
<style type="text/css">
	.st0{fill:#62737E;}
</style>
<path class="st0" d="M148.19,22.62c4.6,0.1,10.27,0.22,15.84,1.03c3.71,0.53,7.45,1.14,11.13,2c3.71,0.87,7.43,1.79,11.02,2.95
	c4.41,1.41,8.79,3.02,12.98,5.02c2.93,1.39,5.8,2.91,8.67,4.41c4.09,2.15,8.07,4.51,11.86,7.17c5.37,3.78,10.57,7.82,15.21,12.52
	c3.56,3.61,7.24,7.1,10.41,11.07c1.89,2.37,3.72,4.81,5.54,7.24c1.73,2.32,4.35,6.25,5.84,8.74c1.09,1.83,2.17,3.66,3.16,5.55
	c1.54,2.98,2.92,6.04,4.32,9.1c1.19,2.63,2.15,5.35,3.14,8.06c1.23,3.36,2.28,6.77,3.16,10.24c0.95,3.74,1.91,7.56,2.35,11.45
	c0.25,2.21,0.93,4.39,0.94,6.58c0.02,3.64,1.02,7.19,0.64,10.88c-0.19,1.78,0.22,3.65-0.05,5.49c-0.12,0.74,0.75,1.24,0.66,2.1
	c-0.13,1.26-0.13,2.48-0.62,3.71c-0.84,2.1-0.38,4.39-0.7,6.6c-0.63,4.3-1.32,8.58-2.24,12.83c-1.07,5-2.58,9.85-4.27,14.67
	c-1.7,4.85-3.6,9.65-5.95,14.22c-4.17,8.12-8.99,15.83-14.78,22.92c-3.51,4.3-7.16,8.47-11.21,12.25
	c-5.65,5.26-11.6,10.16-18.09,14.41c-4,2.62-8.09,5.08-12.34,7.23c-4.25,2.16-8.62,4.08-13.11,5.73c-4.76,1.76-9.58,3.29-14.49,4.51
	c-3.72,0.92-7.48,1.68-11.26,2.33c-2.18,0.38-4.5,0.12-6.63,0.67c-6.38,1.62-12.86,1.02-19.23,0.62
	c-7.01-0.44-13.97-1.52-20.81-3.11c-3.08-0.72-6.17-1.48-9.19-2.46c-3.06-1-6.14-1.94-9.13-3.13c-3.33-1.33-6.62-2.79-9.86-4.35
	c-2.76-1.33-5.42-2.86-8.12-4.32c-0.83-0.45-1.72-0.85-2.41-1.46c-2.31-2.03-4.76-1.45-7.35-0.71c-4.32,1.23-8.7,2.27-13.04,3.42
	c-4.21,1.12-8.4,2.3-12.61,3.43c-1.51,0.41-3.03,0.76-4.55,1.15c-3.89,1-7.79,2-11.69,3.01c-0.44,0.11-0.91,0.43-1.32-0.02
	c-0.46-0.5-0.29-1.06-0.11-1.61c1.82-5.44,3.09-11.03,4.7-16.53c1.69-5.82,3.24-11.68,4.86-17.53c0.54-1.95,0.99-3.92,1.53-5.86
	c0.74-2.66,0.14-6.77-1.32-9.12c-2.15-3.47-4.27-6.95-6.25-10.51c-0.89-1.6-1.46-3.35-2.09-5.07c-0.94-2.57-2.28-4.95-3-7.63
	c-0.68-2.52-1.96-4.91-2.76-7.43c-0.85-2.69-1.58-5.43-2.24-8.19c-0.59-2.47-0.97-4.97-1.51-7.44c-0.25-1.44-0.67-3.79-0.92-5.23
	c-0.76-7.15-1.55-14.32-1.08-21.53c0.32-4.96,0.73-9.94,1.56-14.83c1.07-6.18,2.37-12.33,4.39-18.32c0.97-2.91,1.9-5.84,3.04-8.69
	c1.34-3.37,2.82-6.69,4.46-9.95c1.69-3.37,3.47-6.7,5.51-9.87c2.86-4.48,5.8-8.9,9.25-12.99c1.93-2.27,3.81-4.58,5.79-6.8
	c3.97-4.43,8.48-8.29,13.03-12.1c3.22-2.7,6.6-5.2,10.16-7.44c2.29-1.44,4.55-2.91,6.9-4.26c2.72-1.57,5.52-2.99,8.3-4.41
	c1.4-0.71,2.78-1.55,4.39-1.89c0.97-0.2,1.87-0.83,2.79-1.26c2.58-1.21,5.29-2.04,7.96-2.95c2.56-0.87,5.14-1.62,7.78-2.23
	c1.98-0.46,3.97-0.97,5.96-1.42c0.91-0.21,1.81-0.53,2.75-0.68c5.57-0.84,11.14-1.63,16.79-1.76
	C142.78,22.83,144.96,22.67,148.19,22.62 M96.34,78.19v0.04c-1.9,0-3.8,0.02-5.7-0.01c-1.79-0.03-3.37,0.83-4.75,1.67
	c-3.06,1.88-5.42,4.55-7.61,7.34c-3.96,5.05-6.9,10.87-8.47,17.1c-0.72,2.88-1.22,5.79-1.19,8.81c0.04,3.84,0.03,7.62,0.93,11.43
	c0.57,2.42,1.25,4.81,2,7.16c1.09,3.4,2.64,6.63,4.25,9.84c1.38,2.74,2.96,5.35,4.56,7.94c1.75,2.81,3.81,5.41,5.68,8.13
	c3.84,5.57,7.87,10.98,12.3,16.1c4.19,4.83,8.6,9.45,13.17,13.92c3.34,3.27,6.92,6.26,10.6,9.14c2.67,2.08,5.38,4.13,8.22,5.93
	c2.55,1.61,5.14,3.16,7.77,4.66c4.66,2.68,9.56,4.8,14.52,6.75c2.81,1.1,5.67,2.1,8.54,3.06c6.02,2.02,12.01,4.07,18.29,5.18
	c1.12,0.2,2.22,0.62,3.34,0.69c3.54,0.2,7.06,0.24,10.63,0.02c5.02-0.32,9.54-1.93,13.85-4.21c3.59-1.91,6.97-4.19,9.91-7.04
	c3.21-3.11,5.43-7.16,6.61-11.47c0.36-1.32,0.66-2.65,0.89-3.99c1.09-6.22-2.15-12.33-7.74-15.25c-0.03-0.01-0.06-0.03-0.08-0.04
	c-2.92-1.53-5.96-2.81-8.84-4.42c-2.25-1.28-4.67-2.25-7.02-3.34c-4.04-1.88-7.98-3.95-12.23-5.35c-1.54-0.5-3.02-0.48-4.47,0.51
	c-1.55,1.06-2.49,2.6-3.57,4.01c-3.62,4.74-7.36,9.38-11.38,13.8c-1.73,1.9-4.34,1.83-6.01,1.04c-3.1-1.49-6.28-2.8-9.38-4.29
	c-3.54-1.71-6.98-3.6-10.25-5.73c-7.1-4.6-13.55-10.03-19.26-16.28c-4.09-4.48-7.76-9.31-11.13-14.36
	c-0.12-0.17-0.23-0.35-0.35-0.53c-3.09-4.74-2.43-11,1.29-15.26c1.53-1.75,3.03-3.53,4.41-5.42c1.23-1.68,2.25-3.54,2.95-5.45
	c0.76-2.12,0.46-4.32-0.58-6.47c-1.35-2.79-2.37-5.75-3.55-8.62c-1.43-3.47-2.96-6.92-4.32-10.42c-1.59-4.07-3.12-8.17-5.31-11.95
	c-1.51-2.59-3.64-4.48-6.94-4.39C99.38,78.23,97.86,78.19,96.34,78.19"/>
</svg>
