<?xml version="1.0" encoding="utf-8"?>
<!-- Generator: Adobe Illustrator 26.0.0, SVG Export Plug-In . SVG Version: 6.00 Build 0)  -->
<svg version="1.1" id="Layer_1" xmlns="http://www.w3.org/2000/svg" xmlns:xlink="http://www.w3.org/1999/xlink" x="0px" y="0px"
	 viewBox="0 0 300 300" style="enable-background:new 0 0 300 300;" xml:space="preserve">
<style type="text/css">
	.st0{fill:#FFD279;}
	.st1{fill:#FFFFFF;}
</style>
<path class="st0" d="M277.23,259H19.09c-6.6,0-12-5.4-12-12V70.25c0-6.6,5.4-12,12-12h258.14c6.6,0,12,5.4,12,12V247
	C289.23,253.6,283.83,259,277.23,259z"/>
<g>
	<path class="st1" d="M107.88,141.17c-1.64,0-3.13,0-4.61,0c-12.56,0-22.62-8.86-24.19-21.29c-1.61-12.77,7.74-24.86,20.55-26.53
		c1.31-0.17,2.63-0.25,3.95-0.25c29.68-0.01,59.35-0.03,89.03,0c10.09,0.01,17.68,4.46,22.27,13.46
		c7.41,14.53-2.21,32.42-18.4,34.38c-1.97,0.24-3.99,0.17-5.98,0.23c-0.64,0.02-1.28,0-2.08,0c0,0.53,0,0.99,0,1.45
		c0,21.38,0,42.75,0,64.13c0,8.08-4.92,14.75-12.48,16.77c-1.61,0.43-3.34,0.61-5.01,0.62c-15.28,0.05-30.56,0.07-45.84,0.02
		c-9.91-0.03-17.19-7.47-17.2-17.49c-0.01-21.38,0-42.75,0-64.13C107.88,142.13,107.88,141.72,107.88,141.17z M119.35,165.39
		c0,13.69-0.01,27.37,0,41.06c0,4.03,2.22,6.24,6.22,6.25c15.11,0,30.22,0,45.33,0c3.72,0,6.05-2.3,6.06-6
		c0.01-27.58,0-55.15,0.02-82.73c0-0.81-0.19-1.1-1.06-1.1c-18.46,0.03-36.93,0.02-55.39,0c-0.88,0-1.2,0.17-1.2,1.16
		C119.36,137.81,119.35,151.6,119.35,165.39z M188.48,129.72c1.73,0,3.38,0.03,5.03-0.01c8.96-0.19,14.95-9.4,11.31-17.56
		c-2.3-5.16-6.5-7.61-12.13-7.61c-29.6,0-59.21,0-88.81,0c-0.44,0-0.88,0-1.32,0.01c-8.62,0.31-14.41,9.11-11.26,17.13
		c2.42,6.17,9.6,9.59,16.52,7.87c0-2.21,0-4.42,0-6.62c-0.65-0.08-1.23-0.1-1.78-0.24c-2.77-0.68-4.66-3.29-4.39-6.03
		c0.29-2.95,2.53-5.15,5.5-5.25c2.5-0.09,5.01-0.05,7.52-0.05c22.15,0,44.31,0,66.46,0c2.74,0,5.49-0.02,8.23,0.07
		c2.37,0.08,4.41,1.74,5.1,4c0.68,2.24-0.07,4.66-1.86,6.14c-1.18,0.97-2.56,1.29-4.1,1.32
		C188.48,125.16,188.48,127.35,188.48,129.72z"/>
	<path class="st1" d="M152.33,184.02c1.27-1.34,2.52-2.7,3.83-4c1.13-1.13,2.53-1.4,4.03-0.89c1.44,0.49,2.27,1.56,2.52,3.04
		c0.2,1.24-0.15,2.37-1.04,3.26c-3.6,3.63-7.21,7.25-10.84,10.84c-1.44,1.43-3.81,1.48-5.25,0.07c-3.7-3.62-7.36-7.29-10.99-10.98
		c-1.49-1.52-1.37-3.91,0.14-5.4c1.41-1.4,3.84-1.46,5.34-0.03c1.36,1.3,2.65,2.69,3.96,4.03c0.09-0.04,0.18-0.07,0.26-0.11
		c0-0.35,0-0.7,0-1.06c0-6.26,0-12.53,0-18.79c0-1.56,0.65-2.77,2.01-3.52c1.32-0.73,2.68-0.67,3.95,0.15
		c1.29,0.82,1.78,2.05,1.78,3.54c-0.01,6.23,0,12.46,0,18.69c0,0.32,0.03,0.64,0.04,0.97C152.15,183.9,152.24,183.96,152.33,184.02z
		"/>
	<path class="st1" d="M148.15,141.17c-3.59,0-7.18,0.01-10.77,0c-3.45-0.01-5.94-2.42-5.94-5.72c0-3.3,2.49-5.71,5.94-5.72
		c7.18-0.01,14.36-0.01,21.54,0c3.45,0.01,5.95,2.43,5.94,5.72c0,3.29-2.5,5.71-5.95,5.72
		C155.33,141.18,151.74,141.17,148.15,141.17z"/>
</g>
</svg>
